<svg xmlns="http://www.w3.org/2000/svg" viewBox="0 0 1195.86 590.93" width="1195.86" height="590.93"><defs><style>.cls-1{fill:none;}.cls-2{fill:#fff;}</style></defs><title>Asset 2</title><g id="Layer_2" data-name="Layer 2"><g id="Layer_1-2" data-name="Layer 1"><path class="cls-1" d="M202.56,249.36,166.18,360.61h71.66L203.72,249.47Z"/><path class="cls-1" d="M615.12,18.73c0-5-1.17-6.3-6.26-6.29q-295,.21-589.95.12c-6.33,0-6.34,0-6.34,6.54q0,276.73-.12,553.45c0,5.12,1.33,6.25,6.32,6.24q147.49-.24,295-.12t295,.1c4.75,0,6.42-.74,6.42-6.09Q614.89,295.71,615.12,18.73ZM358.52,466.48H334.78c-18.83,0-37.66-.07-56.49.08-3,0-4.34-1-5.27-3.78-5-15-10.18-29.9-15.09-44.9-1-3.17-2.39-4.31-5.9-4.29q-50.49.24-101,0c-3.17,0-4.59.84-5.59,4-4.69,14.73-9.86,29.32-14.49,44.07-1.23,3.92-3,5-7,4.92q-32.49-.33-65,0c-4.21,0-4.66-.87-3.16-4.67q51.86-131,103.46-262c1.25-3.18,2.85-4.09,6.2-4.08q41.24.22,82.49,0c3.33,0,4.84.87,6.11,4.09q51.7,131.25,103.63,262.41C358.16,463.51,359,464.67,358.52,466.48Zm216.15.07q-32.24-.2-64.49,0c-3,0-4.1-.77-4.13-3.84-.05-5.14-.53-10.28-.88-16.33-23.9,25.9-52.54,30.63-83.9,21.64-27.13-7.78-44.7-31.19-45-59.44-.52-42.15-.16-84.32-.27-126.48,0-2.9.91-3.64,3.7-3.63,21.33.1,42.66.18,64-.05,4.44,0,3.78,2.43,3.78,5q0,52.24,0,104.48a66.35,66.35,0,0,0,3,20.67c3.77,11.56,11.17,17.53,22.37,18.18,13.48.78,23.8-4.83,28.71-15.67a42.86,42.86,0,0,0,3.7-18c0-36.49.05-73-.12-109.48,0-4.12,1-5.31,5.17-5.26q30.74.33,61.49,0c4.12,0,4.87,1.29,4.86,5.06-.12,44.83,0,89.65-.09,134.48a443.17,443.17,0,0,0,2,44.38C578.93,465.76,578,466.57,574.67,466.55Z"/><path class="cls-1" d="M901.81,322.83c-7-11.33-17.08-15.77-30.12-14-12.44,1.65-20.71,8.45-24.81,20.26a75.74,75.74,0,0,0-3.33,15.58c-.37,3,.44,3.74,3.35,3.69,9.66-.16,19.33-.06,29-.06,9.5,0,19-.22,28.49.1,4.05.14,4.87-1.35,4.35-4.87C907.63,336.18,905.73,329.2,901.81,322.83Z"/><path class="cls-1" d="M1115.86,376.84c-2,0-4,0-6,0-12.94.2-25.16,2.48-34.93,12-6.58,6.39-8.49,14.19-6.46,22.87a24.13,24.13,0,0,0,20.81,18.85c12.19,1.45,23.57-4.07,29.12-14.25,5.08-9.32,6.09-19.57,6.54-29.91C1125.3,376.84,1125.3,376.84,1115.86,376.84Z"/><path class="cls-2" d="M1195.64,460.92a292.8,292.8,0,0,1-3.69-49.24c.36-26-.25-52,.2-78,.4-23.14-10.34-38.88-30.31-49.2-15.09-7.8-31.33-11.18-48.11-11.61-24.61-.63-49,1.18-71.74,11.82-19.38,9.05-29.91,24.23-31,45.72-.1,2-.91,4.35,2.84,4.33,20.5-.13,41-.08,61.5,0,2,0,2.91-.45,3-2.72a31.91,31.91,0,0,1,3.33-13.46c4.75-9.63,14-14.19,25.41-12.45,10.54,1.62,16.3,7.34,17.66,18a126.51,126.51,0,0,1,.58,15.94c0,4.43-1.66,5-5.52,5-9.49-.18-19-.05-28.48.28-18.73.66-37.12,3.21-54.62,10.41-38.61,15.89-51.29,64.46-24.94,95.84,10.48,12.48,24.65,17.88,40.3,19.61,20.85,2.31,41,.59,58.41-12.9,5.93-4.58,10.61-10.33,14.94-16.42l1.51.44c0,6.31,0,12.63,0,18.94,0,3.75,1.18,5.47,5.54,5.41,19.5-.27,39-.31,58.5,0C1195.82,466.7,1196.28,465,1195.64,460.92Zm-70.69-74.57c-.45,10.35-1.46,20.59-6.54,29.91-5.55,10.19-16.93,15.71-29.12,14.25a24.13,24.13,0,0,1-20.81-18.85c-2-8.68-.12-16.48,6.46-22.87,9.77-9.48,22-11.77,34.93-12,2,0,4,0,6,0C1125.3,376.84,1125.3,376.84,1124.95,386.36Z"/><path class="cls-2" d="M970.73,336.28c-8.31-30.29-26.59-51-57.57-59-24.81-6.41-49.87-6.89-74.44.79-34.09,10.66-56.14,33.14-62.56,68.9-3.84,21.39-2,42.81,3.36,63.86,7.09,27.85,24,46.51,51.79,55,21.22,6.46,42.93,7.15,64.79,5.36A97.31,97.31,0,0,0,942,455.83c17.1-11.13,28.73-26,32.49-46.42.66-3.58.16-4.88-4-4.83-19.32.23-38.65.09-58,.13-1.63,0-3.5-.79-4.05,2.16-3.28,17.44-17.73,25.22-35.25,24.86-14.91-.3-24.31-7.13-28.81-21.46-1.91-6.08-2.48-12.35-2.83-18.68-.21-3.73.66-5.06,4.77-5,20.66.24,41.32.11,62,.11,21.33,0,42.65-.06,64,.06,3.13,0,4.4-.6,4.26-4.05C976,367,974.9,351.47,970.73,336.28Zm-66.36,12.08c-9.49-.32-19-.1-28.49-.1-9.66,0-19.33-.1-29,.06-2.91,0-3.72-.71-3.35-3.69A75.74,75.74,0,0,1,846.88,329c4.1-11.81,12.36-18.61,24.81-20.26,13-1.73,23.14,2.71,30.12,14,3.92,6.37,5.82,13.36,6.91,20.66C909.25,347,908.42,348.5,904.37,348.36Z"/><path class="cls-2" d="M756.33,283.28c0-11.35,0-11.41-11.54-10.36-15.86,1.45-30.39,5.85-41,18.8-4.89,6-7.75,13-11.22,20.09a191.69,191.69,0,0,1-.75-27.83c.25-5-1.71-5.57-5.93-5.53-19.32.19-38.65.08-58,.08-.07-2.33-.19-4.66-.19-7q0-132.49,0-265c0-6.55,0-6.55-6.47-6.55H6.78C0,0,0,0,0,6.73Q0,295.46,0,584.19c0,7.47-.86,6.63,6.7,6.63q256.48,0,513,0c34.16,0,68.33-.08,102.49.1,4.29,0,5.72-.91,5.64-5.46-.29-16.16-.14-32.33-.11-48.49q.07-35.24.19-70.48h0c20,0,40-.14,60,.11,4.16.05,4.89-1.31,4.87-5.07-.15-24.82,0-49.65-.11-74.47a109.75,109.75,0,0,1,1.08-15.43c2.93-21.1,14.91-34.05,34.87-37.72,7.76-1.43,15.62-1.39,23.41-.93,3.75.22,4.44-.8,4.4-4.22C756.24,313.6,756.33,298.44,756.33,283.28ZM608.73,578.78q-147.49-.2-295-.1t-295,.12c-5,0-6.33-1.12-6.32-6.24q.22-276.72.12-553.45c0-6.53,0-6.54,6.34-6.54q295,0,589.95-.12c5.08,0,6.26,1.27,6.26,6.29q-.21,277,0,553.95C615.15,578,613.47,578.78,608.73,578.78Z"/><path class="cls-2" d="M254.06,199.9c-1.27-3.23-2.79-4.11-6.11-4.09q-41.24.21-82.49,0c-3.34,0-4.95.9-6.2,4.08q-51.6,131.06-103.46,262c-1.5,3.8-1.05,4.7,3.16,4.67q32.49-.28,65,0c4,0,5.79-1,7-4.92,4.63-14.75,9.8-29.34,14.49-44.07,1-3.14,2.42-4,5.59-4q50.49.17,101,0c3.5,0,4.86,1.12,5.9,4.29,4.91,15,10.14,29.91,15.09,44.9.93,2.81,2.24,3.8,5.27,3.78,18.83-.15,37.66-.08,56.49-.08h23.74c.44-1.81-.36-3-.83-4.18Q305.85,331.11,254.06,199.9ZM166.18,360.61l36.37-111.25,1.16.1,34.12,111.15Z"/><path class="cls-2" d="M576.55,418c.05-44.83,0-89.65.09-134.48,0-3.77-.74-5.11-4.86-5.06q-30.74.35-61.49,0c-4.2,0-5.19,1.15-5.17,5.26.17,36.49.08,73,.12,109.48a42.86,42.86,0,0,1-3.7,18c-4.91,10.84-15.23,16.45-28.71,15.67-11.2-.65-18.6-6.62-22.37-18.18a66.35,66.35,0,0,1-3-20.67q0-52.24,0-104.48c0-2.62.66-5.1-3.78-5-21.33.24-42.66.15-64,.05-2.79,0-3.71.73-3.7,3.63.11,42.16-.25,84.32.27,126.48.35,28.25,17.91,51.66,45,59.44,31.36,9,60,4.25,83.9-21.64.35,6,.83,11.19.88,16.33,0,3.08,1.12,3.86,4.13,3.84q32.24-.2,64.49,0c3.31,0,4.25-.79,3.91-4.21A443.17,443.17,0,0,1,576.55,418Z"/></g></g></svg>
