<svg xmlns="http://www.w3.org/2000/svg" viewBox="0 0 1195.86 590.93" width="1195.86" height="590.93"><defs><style>.cls-1{fill:#e0503c;}</style></defs><title>Asset 1</title><g id="Layer_2" data-name="Layer 2"><g id="Layer_1-2" data-name="Layer 1"><g id="Q4KLoR.tif"><path class="cls-1" d="M627.9,466.49q-.1,35.24-.19,70.48c0,16.17-.18,32.33.11,48.49.08,4.55-1.35,5.48-5.64,5.46-34.16-.17-68.33-.1-102.49-.1q-256.48,0-513,0c-7.56,0-6.69.84-6.7-6.63Q0,295.46,0,6.73C0,0,0,0,6.78,0H621.23c6.47,0,6.47,0,6.47,6.55q0,132.49,0,265c0,2.33.12,4.66.19,7-.06,2-.16,4-.16,6q0,81,0,162C627.74,453.16,627.85,459.82,627.9,466.49ZM313.75,578.68q147.49,0,295,.1c4.75,0,6.42-.74,6.42-6.09q-.25-277,0-553.95c0-5-1.17-6.3-6.26-6.29q-295,.21-589.95.12c-6.33,0-6.34,0-6.34,6.54q0,276.73-.12,553.45c0,5.12,1.33,6.25,6.32,6.24Q166.27,578.56,313.75,578.68Z"/><path class="cls-1" d="M1125.35,441.8c-4.33,6.09-9,11.84-14.94,16.42-17.44,13.49-37.56,15.21-58.41,12.9-15.65-1.74-29.82-7.13-40.3-19.61-26.35-31.38-13.67-79.94,24.94-95.84,17.5-7.2,35.9-9.75,54.62-10.41,9.49-.34,19-.46,28.48-.28,3.86.07,5.52-.54,5.52-5a126.51,126.51,0,0,0-.58-15.94c-1.35-10.65-7.12-16.37-17.66-18-11.36-1.74-20.66,2.82-25.41,12.45a31.91,31.91,0,0,0-3.33,13.46c-.05,2.28-.93,2.73-3,2.72-20.5-.06-41-.1-61.5,0-3.75,0-2.94-2.36-2.84-4.33,1.09-21.49,11.62-36.67,31-45.72,22.79-10.64,47.13-12.45,71.74-11.82,16.78.43,33,3.81,48.11,11.61,20,10.32,30.71,26.06,30.31,49.2-.45,26,.16,52-.2,78a292.8,292.8,0,0,0,3.69,49.24c.64,4.11.18,5.78-4.76,5.69-19.49-.33-39-.29-58.5,0-4.36.06-5.55-1.66-5.54-5.41,0-6.31,0-12.63,0-18.94Zm-.4-55.44c.35-9.52.35-9.52-9.09-9.52-2,0-4,0-6,0-12.94.2-25.16,2.48-34.93,12-6.58,6.39-8.49,14.19-6.46,22.87a24.13,24.13,0,0,0,20.81,18.85c12.19,1.45,23.57-4.07,29.12-14.25C1123.49,406.95,1124.49,396.71,1124.95,386.36Z"/><path class="cls-1" d="M908.38,386.69c-20.66,0-41.32.13-62-.11-4.11,0-5,1.28-4.77,5,.35,6.34.92,12.6,2.83,18.68,4.5,14.32,13.9,21.15,28.81,21.46,17.52.36,32-7.42,35.25-24.86.55-2.95,2.42-2.15,4.05-2.16,19.33,0,38.65.1,58-.13,4.11,0,4.61,1.25,4,4.83-3.76,20.46-15.38,35.29-32.49,46.42a97.31,97.31,0,0,1-45.91,15.28c-21.86,1.79-43.57,1.1-64.79-5.36-27.75-8.45-44.7-27.1-51.79-55-5.35-21-7.2-42.47-3.36-63.86,6.42-35.75,28.47-58.24,62.56-68.9,24.57-7.68,49.63-7.2,74.44-.79,31,8,49.26,28.73,57.57,59,4.17,15.2,5.22,30.77,5.88,46.42.15,3.46-1.13,4.07-4.26,4.05C951,386.63,929.7,386.69,908.38,386.69Zm-32.49-38.43c9.5,0,19-.22,28.49.1,4.05.14,4.87-1.35,4.35-4.87-1.09-7.3-3-14.29-6.91-20.66-7-11.33-17.08-15.77-30.12-14-12.44,1.65-20.71,8.45-24.81,20.26a75.74,75.74,0,0,0-3.33,15.58c-.37,3,.44,3.74,3.35,3.69C856.56,348.16,866.22,348.26,875.89,348.26Z"/><path class="cls-1" d="M627.9,466.49c-.06-6.66-.17-13.33-.17-20q0-81,0-162c0-2,.11-4,.16-6,19.33,0,38.65.11,58-.08,4.22,0,6.18.55,5.93,5.53a191.69,191.69,0,0,0,.75,27.83c3.47-7.1,6.33-14.13,11.22-20.09,10.62-12.95,25.15-17.35,41-18.8,11.53-1.06,11.54-1,11.54,10.36,0,15.16-.09,30.32.07,45.48,0,3.43-.66,4.44-4.4,4.22-7.8-.45-15.65-.5-23.41.93-20,3.67-31.94,16.62-34.87,37.72a109.75,109.75,0,0,0-1.08,15.43c.07,24.82,0,49.65.11,74.47,0,3.76-.71,5.12-4.87,5.07C667.89,466.35,647.9,466.49,627.9,466.49Z"/><path class="cls-1" d="M358.52,466.48H334.78c-18.83,0-37.66-.07-56.49.08-3,0-4.34-1-5.27-3.78-5-15-10.18-29.9-15.09-44.9-1-3.17-2.39-4.31-5.9-4.29q-50.49.24-101,0c-3.17,0-4.59.84-5.59,4-4.69,14.73-9.86,29.32-14.49,44.07-1.23,3.92-3,5-7,4.92q-32.49-.33-65,0c-4.21,0-4.66-.87-3.16-4.67q51.86-131,103.46-262c1.25-3.18,2.85-4.09,6.2-4.08q41.24.22,82.49,0c3.33,0,4.84.87,6.11,4.09q51.7,131.25,103.63,262.41C358.16,463.51,359,464.68,358.52,466.48Zm-154.8-217-1.16-.1L166.18,360.61h71.66Z"/><path class="cls-1" d="M505.17,446.38c-23.9,25.9-52.54,30.63-83.9,21.64-27.13-7.78-44.7-31.19-45-59.44-.52-42.15-.16-84.32-.27-126.48,0-2.9.91-3.64,3.7-3.63,21.33.1,42.66.18,64-.05,4.44,0,3.78,2.43,3.78,5q0,52.24,0,104.48a66.35,66.35,0,0,0,3,20.67c3.77,11.56,11.17,17.53,22.37,18.18,13.48.78,23.8-4.83,28.71-15.67a42.86,42.86,0,0,0,3.7-18c0-36.49.05-73-.12-109.48,0-4.12,1-5.31,5.17-5.26q30.74.33,61.49,0c4.12,0,4.87,1.29,4.86,5.06-.12,44.83,0,89.65-.09,134.48a443.17,443.17,0,0,0,2,44.38c.34,3.41-.6,4.23-3.91,4.21q-32.24-.2-64.49,0c-3,0-4.1-.77-4.13-3.84C506,457.57,505.52,452.43,505.17,446.38Z"/></g></g></g></svg>
